# xmcd CD database file
#
# Track frame offsets:
#	150
#	23844
#	59120
#	75979
#	107237
#	137387
#	168656
#	200276
#	236524
#	270843
#
# Disc length: 4204 seconds
#
# Revision: 0
# Processed by: cddbd v1.5.2PL0 Copyright (c) Steve Scherf et al.
# Submitted via: CDex 1.51
#
DISCID=7c106a0a
DTITLE=Johnny Raducanu - To His Friends
DYEAR=1900
DGENRE=Jazz
TTITLE0=01. Hi, Mr. Demetz
TTITLE1=02. Respect to Körösy
TTITLE2=03. Danny Blues
TTITLE3=04. Waltz for Piano
TTITLE4=05. Maria
TTITLE5=06. Ateg Song
TTITLE6=07. Epu Blues
TTITLE7=08. Zeka
TTITLE8=09. Mosu Blues
TTITLE9=10. Omagiu lui Grecu
EXTD=
EXTT0=
EXTT1=
EXTT2=
EXTT3=
EXTT4=
EXTT5=
EXTT6=
EXTT7=
EXTT8=
EXTT9=
PLAYORDER=
